<?xml version="1.0" encoding="UTF-8" standalone="no"?><svg xmlns="http://www.w3.org/2000/svg" xmlns:xlink="http://www.w3.org/1999/xlink" clip-rule="evenodd" stroke-miterlimit="4.00" viewBox="0 0 1080 1080"><desc>SVG generated by Keynote</desc><defs></defs><g transform="matrix(1.00, 0.00, -0.00, -1.00, 0.0, 1080.0)"><path d="M 0.0 1080.0 L 1080.0 1080.0 L 1080.0 0.0 L 0.0 0.0 Z M 0.0 1080.0 " fill="#FFFFFF"></path><path d="M 159.8 317.1 L 163.6 317.1 L 167.4 316.9 L 171.2 316.7 L 175.0 316.4 L 178.7 316.0 L 182.4 315.5 L 186.1 315.0 L 189.7 314.3 L 193.4 313.6 L 197.0 312.8 L 200.5 311.9 L 204.0 311.0 L 207.5 309.9 L 211.0 308.8 L 214.4 307.6 L 217.8 306.3 L 221.2 305.0 L 224.5 303.6 L 227.8 302.1 L 231.0 300.6 L 234.2 298.9 L 237.3 297.2 L 240.5 295.5 L 243.5 293.6 L 246.5 291.8 L 249.5 289.8 L 252.4 287.8 L 255.3 285.7 L 258.2 283.5 L 260.9 281.3 L 263.7 279.1 L 266.3 276.7 L 269.0 274.4 L 271.5 271.9 L 274.0 269.4 L 276.5 266.9 L 278.9 264.3 L 281.2 261.6 L 283.5 258.9 L 285.8 256.1 L 287.9 253.3 L 290.0 250.5 L 292.1 247.6 L 294.0 244.6 L 295.9 241.6 L 297.8 238.6 L 299.6 235.5 L 301.3 232.4 L 302.9 229.2 L 304.5 226.0 L 306.0 222.7 L 307.4 219.5 L 308.7 216.1 L 310.0 212.8 L 311.2 209.4 L 312.3 205.9 L 313.4 202.5 L 314.4 199.0 L 315.3 195.4 L 316.1 191.9 L 316.8 188.3 L 317.4 184.6 L 318.0 181.0 L 318.5 177.3 L 318.9 173.6 L 319.2 169.9 L 319.4 166.1 L 319.6 162.4 L 319.6 158.6 L 319.6 154.8 L 319.4 151.0 L 319.2 147.2 L 318.9 143.5 L 318.5 139.8 L 318.0 136.1 L 317.4 132.5 L 316.8 128.9 L 316.1 125.3 L 315.3 121.7 L 314.4 118.2 L 313.4 114.7 L 312.3 111.2 L 311.2 107.8 L 310.0 104.4 L 308.7 101.0 L 307.4 97.7 L 306.0 94.4 L 304.5 91.1 L 302.9 87.9 L 301.3 84.7 L 299.6 81.6 L 297.8 78.5 L 295.9 75.5 L 294.0 72.5 L 292.1 69.5 L 290.0 66.6 L 287.9 63.8 L 285.8 61.0 L 283.5 58.2 L 281.2 55.5 L 278.9 52.8 L 276.5 50.2 L 274.0 47.7 L 271.5 45.2 L 269.0 42.8 L 266.3 40.4 L 263.7 38.1 L 260.9 35.8 L 258.2 33.6 L 255.3 31.4 L 252.4 29.3 L 249.5 27.3 L 246.5 25.4 L 243.5 23.5 L 240.5 21.6 L 237.3 19.9 L 234.2 18.2 L 231.0 16.6 L 227.8 15.0 L 224.5 13.5 L 221.2 12.1 L 217.8 10.8 L 214.4 9.5 L 211.0 8.3 L 207.5 7.2 L 204.0 6.2 L 200.5 5.2 L 197.0 4.3 L 193.4 3.5 L 189.7 2.8 L 186.1 2.1 L 182.4 1.6 L 178.7 1.1 L 175.0 0.7 L 171.2 0.4 L 167.4 0.2 L 163.6 0.0 L 159.8 0.0 L 156.0 0.0 L 152.2 0.2 L 148.4 0.4 L 144.6 0.7 L 140.9 1.1 L 137.2 1.6 L 133.5 2.1 L 129.9 2.8 L 126.2 3.5 L 122.6 4.3 L 119.1 5.2 L 115.6 6.2 L 112.1 7.2 L 108.6 8.3 L 105.2 9.5 L 101.8 10.8 L 98.4 12.1 L 95.1 13.5 L 91.8 15.0 L 88.6 16.6 L 85.4 18.2 L 82.3 19.9 L 79.1 21.6 L 76.1 23.5 L 73.1 25.4 L 70.1 27.3 L 67.2 29.3 L 64.3 31.4 L 61.4 33.6 L 58.7 35.8 L 55.9 38.1 L 53.3 40.4 L 50.6 42.8 L 48.1 45.2 L 45.6 47.7 L 43.1 50.2 L 40.7 52.8 L 38.4 55.5 L 36.1 58.2 L 33.8 61.0 L 31.7 63.8 L 29.6 66.6 L 27.5 69.5 L 25.6 72.5 L 23.7 75.5 L 21.8 78.5 L 20.0 81.6 L 18.3 84.7 L 16.7 87.9 L 15.1 91.1 L 13.6 94.4 L 12.2 97.7 L 10.9 101.0 L 9.6 104.4 L 8.4 107.8 L 7.3 111.2 L 6.2 114.7 L 5.2 118.2 L 4.3 121.7 L 3.5 125.3 L 2.8 128.9 L 2.2 132.5 L 1.6 136.1 L 1.1 139.8 L 0.7 143.5 L 0.4 147.2 L 0.2 151.0 L 0.0 154.8 L 0.0 158.6 L 0.0 162.4 L 0.2 166.1 L 0.4 169.9 L 0.7 173.6 L 1.1 177.3 L 1.6 181.0 L 2.2 184.6 L 2.8 188.3 L 3.5 191.9 L 4.3 195.4 L 5.2 199.0 L 6.2 202.5 L 7.3 205.9 L 8.4 209.4 L 9.6 212.8 L 10.9 216.1 L 12.2 219.5 L 13.6 222.7 L 15.1 226.0 L 16.7 229.2 L 18.3 232.4 L 20.0 235.5 L 21.8 238.6 L 23.7 241.6 L 25.6 244.6 L 27.5 247.6 L 29.6 250.5 L 31.7 253.3 L 33.8 256.1 L 36.1 258.9 L 38.4 261.6 L 40.7 264.3 L 43.1 266.9 L 45.6 269.4 L 48.1 271.9 L 50.6 274.4 L 53.3 276.7 L 55.9 279.1 L 58.7 281.3 L 61.4 283.5 L 64.3 285.7 L 67.2 287.8 L 70.1 289.8 L 73.1 291.8 L 76.1 293.6 L 79.1 295.5 L 82.3 297.2 L 85.4 298.9 L 88.6 300.6 L 91.8 302.1 L 95.1 303.6 L 98.4 305.0 L 101.8 306.3 L 105.2 307.6 L 108.6 308.8 L 112.1 309.9 L 115.6 311.0 L 119.1 311.9 L 122.6 312.8 L 126.2 313.6 L 129.9 314.3 L 133.5 315.0 L 137.2 315.5 L 140.9 316.0 L 144.6 316.4 L 148.4 316.7 L 152.2 316.9 L 156.0 317.1 L 159.8 317.1 Z M 159.8 317.1 " fill="none" stroke="#FFFFFF" stroke-width="17.00" stroke-linejoin="round" transform="matrix(1.00, 0.00, 0.00, -1.00, 236.2, 1030.3)"></path></g></svg>