<?xml version="1.0" encoding="UTF-8" standalone="no"?><svg xmlns="http://www.w3.org/2000/svg" xmlns:xlink="http://www.w3.org/1999/xlink" clip-rule="evenodd" stroke-miterlimit="4.00" viewBox="0 0 1080 1080"><desc>SVG generated by Keynote</desc><defs></defs><g transform="matrix(1.00, 0.00, -0.00, -1.00, 0.0, 1080.0)"><path d="M 0.0 1080.0 L 1080.0 1080.0 L 1080.0 0.0 L 0.0 0.0 Z M 0.0 1080.0 " fill="#FFFFFF"></path><g><clipPath id="clip-634"><path d="M 123.0 903.6 L 843.0 903.6 L 843.0 446.4 L 123.0 446.4 Z M 123.0 903.6 "></path></clipPath><g clip-path="url(#clip-634)"><image xlink:href="F86B7F9071ABC4EF02A7CBB0C864131A.jpeg" width="720.00" height="457.00" transform="matrix(1.00, 0.00, -0.00, -1.00, 123.0, 903.6)"></image></g></g><text xml:space="preserve" font-family="Helvetica" font-size="12.0" fill="#3E3E3E" transform="matrix(1.00, 0.00, -0.00, -1.00, 46.0, 1023.0)">U</text><text xml:space="preserve" font-family="Helvetica" font-size="12.0" fill="#3E3E3E" transform="matrix(1.00, 0.00, -0.00, -1.00, 54.6, 1023.0)">S</text><text xml:space="preserve" font-family="Helvetica" font-size="12.0" fill="#3E3E3E" transform="matrix(1.00, 0.00, -0.00, -1.00, 62.6, 1023.0)">E</text><text xml:space="preserve" font-family="Helvetica" font-size="12.0" fill="#3E3E3E" transform="matrix(1.00, 0.00, -0.00, -1.00, 70.5, 1023.0)"> </text><text xml:space="preserve" font-family="Helvetica" font-size="12.0" fill="#3E3E3E" transform="matrix(1.00, 0.00, -0.00, -1.00, 72.9, 1023.0)">C</text><text xml:space="preserve" font-family="Helvetica" font-size="12.0" fill="#3E3E3E" transform="matrix(1.00, 0.00, -0.00, -1.00, 81.5, 1023.0)">A</text><text xml:space="preserve" font-family="Helvetica" font-size="12.0" fill="#3E3E3E" transform="matrix(1.00, 0.00, -0.00, -1.00, 89.5, 1023.0)">S</text><text xml:space="preserve" font-family="Helvetica" font-size="12.0" fill="#3E3E3E" transform="matrix(1.00, 0.00, -0.00, -1.00, 97.4, 1023.0)">E</text><path d="M 520.3 672.3 L 561.1 672.3 L 561.1 697.2 L 520.3 697.2 L 520.3 672.3 Z M 520.3 672.3 " fill="#DADEEC"></path><text xml:space="preserve" font-family="Helvetica" font-size="12.0" fill="#221E20" transform="matrix(1.00, 0.00, -0.00, -1.00, 526.0, 687.0)">T</text><text xml:space="preserve" font-family="Helvetica" font-size="12.0" fill="#221E20" transform="matrix(1.00, 0.00, -0.00, -1.00, 532.4, 687.0)">r</text><text xml:space="preserve" font-family="Helvetica" font-size="12.0" fill="#221E20" transform="matrix(1.00, 0.00, -0.00, -1.00, 536.4, 687.0)">a</text><text xml:space="preserve" font-family="Helvetica" font-size="12.0" fill="#221E20" transform="matrix(1.00, 0.00, -0.00, -1.00, 543.1, 687.0)">c</text><text xml:space="preserve" font-family="Helvetica" font-size="12.0" fill="#221E20" transform="matrix(1.00, 0.00, -0.00, -1.00, 549.1, 687.0)">k</text><text xml:space="preserve" font-family="Helvetica" font-size="12.0" fill="#221E20" transform="matrix(1.00, 0.00, -0.00, -1.00, 555.1, 687.0)"> </text><text xml:space="preserve" font-family="Helvetica" font-size="12.0" fill="#221E20" transform="matrix(1.00, 0.00, -0.00, -1.00, 558.4, 687.0)"> </text><text xml:space="preserve" font-family="Helvetica" font-size="12.0" fill="#221E20" transform="matrix(1.00, 0.00, -0.00, -1.00, 526.0, 673.0)">H</text><text xml:space="preserve" font-family="Helvetica" font-size="12.0" fill="#221E20" transform="matrix(1.00, 0.00, -0.00, -1.00, 534.6, 673.0)">i</text><text xml:space="preserve" font-family="Helvetica" font-size="12.0" fill="#221E20" transform="matrix(1.00, 0.00, -0.00, -1.00, 537.2, 673.0)">k</text><text xml:space="preserve" font-family="Helvetica" font-size="12.0" fill="#221E20" transform="matrix(1.00, 0.00, -0.00, -1.00, 543.2, 673.0)">e</text><g><clipPath id="clip-635"><path d="M 737.4 476.5 L 756.8 476.5 L 756.8 487.6 L 737.4 487.6 Z M 737.4 476.5 "></path></clipPath><g clip-path="url(#clip-635)"><text xml:space="preserve" font-family="HelveticaNeue-CondensedBlack" font-weight="bold" font-size="10.0" fill="#FFFFFF" transform="matrix(1.00, 0.00, -0.00, -1.00, 742.0, 479.0)">1</text><text xml:space="preserve" font-family="HelveticaNeue-CondensedBlack" font-weight="bold" font-size="10.0" fill="#FFFFFF" transform="matrix(1.00, 0.00, -0.00, -1.00, 747.2, 479.0)">8</text></g></g></g></svg>