<?xml version="1.0" encoding="UTF-8" standalone="no"?><svg xmlns="http://www.w3.org/2000/svg" xmlns:xlink="http://www.w3.org/1999/xlink" clip-rule="evenodd" stroke-miterlimit="4.00" viewBox="0 0 1080 1080"><desc>SVG generated by Keynote</desc><defs></defs><g transform="matrix(1.00, 0.00, -0.00, -1.00, 0.0, 1080.0)"><path d="M 0.0 1080.0 L 1080.0 1080.0 L 1080.0 0.0 L 0.0 0.0 Z M 0.0 1080.0 " fill="#FFFFFF"></path><path d="M 0.0 0.0 L 840.7 0.0 " fill="none" stroke="#221E20" stroke-width="1.00" stroke-linejoin="round" transform="matrix(1.00, 0.00, 0.00, -1.00, 105.1, 867.6)"></path><path d="M 0.0 0.0 L 396.0 0.0 " fill="none" stroke="#221E20" stroke-width="1.00" stroke-linejoin="round" transform="matrix(0.00, -1.00, -1.00, 0.00, 207.8, 823.5)"></path><path d="M 0.0 0.0 L 414.4 0.0 " fill="none" stroke="#221E20" stroke-width="1.00" stroke-linejoin="round" transform="matrix(0.00, -1.00, -1.00, 0.00, 337.4, 841.8)"></path><path d="M 0.0 0.0 L 283.5 0.0 " fill="none" stroke="#221E20" stroke-width="1.00" stroke-linejoin="round" transform="matrix(0.00, -1.00, -1.00, 0.00, 467.3, 823.5)"></path><path d="M 0.0 0.0 L 711.3 0.0 " fill="none" stroke="#221E20" stroke-width="1.00" stroke-linejoin="round" transform="matrix(0.00, -1.00, -1.00, 0.00, 597.2, 841.8)"></path><path d="M 0.0 0.0 L 292.9 0.0 " fill="none" stroke="#221E20" stroke-width="1.00" stroke-linejoin="round" transform="matrix(0.00, -1.00, -1.00, 0.00, 986.8, 841.8)"></path><path d="M 0.0 0.0 L 135.5 0.0 " fill="none" stroke="#221E20" stroke-width="1.00" stroke-linejoin="round" transform="matrix(1.00, 0.00, 0.00, -1.00, 208.3, 634.7)"></path><path d="M 0.0 0.0 L 129.2 0.0 " fill="none" stroke="#221E20" stroke-width="1.00" stroke-linejoin="round" transform="matrix(1.00, 0.00, 0.00, -1.00, 207.8, 427.5)"></path><g><clipPath id="clip-656"><path d="M 945.9 948.7 L 1027.8 948.7 L 1027.8 735.4 L 945.9 735.4 Z M 945.9 948.7 "></path></clipPath><g clip-path="url(#clip-656)"><image xlink:href="../../C4B6CFB2-55FB-4B9B-A903-E4AD535EFC6B/assets/41E16AB914315BA6783FFDB6810E30FE.jpeg" width="81.00" height="214.00" transform="matrix(1.01, 0.00, -0.00, -1.00, 945.9, 948.7)"></image></g></g><g><clipPath id="clip-657"><path d="M 945.9 714.9 L 1027.8 714.9 L 1027.8 501.6 L 945.9 501.6 Z M 945.9 714.9 "></path></clipPath><g clip-path="url(#clip-657)"><image xlink:href="../../C4B6CFB2-55FB-4B9B-A903-E4AD535EFC6B/assets/E4F6A8A964EBE5E4CF4DC40AAD167F2F.jpeg" width="81.00" height="214.00" transform="matrix(1.01, 0.00, -0.00, -1.00, 945.9, 714.9)"></image></g></g><g><clipPath id="clip-658"><path d="M 686.1 948.7 L 768.1 948.7 L 768.1 753.8 L 686.1 753.8 Z M 686.1 948.7 "></path></clipPath><g clip-path="url(#clip-658)"><image xlink:href="../../C4B6CFB2-55FB-4B9B-A903-E4AD535EFC6B/assets/3254DFA5176BFCBCA4280B5217B145BF.png" width="81.00" height="195.00" transform="matrix(1.01, 0.00, -0.00, -1.00, 686.1, 948.7)"></image></g></g><g><clipPath id="clip-659"><path d="M 556.2 480.9 L 638.2 480.9 L 638.2 286.2 L 556.2 286.2 Z M 556.2 480.9 "></path></clipPath><g clip-path="url(#clip-659)"><image xlink:href="../../C4B6CFB2-55FB-4B9B-A903-E4AD535EFC6B/assets/C66A33F34259E86F5FEDC195F99C2881.jpeg" width="81.00" height="195.00" transform="matrix(1.01, 0.00, -0.00, -1.00, 556.2, 480.9)"></image></g></g><g><clipPath id="clip-660"><path d="M 556.2 247.2 L 638.2 247.2 L 638.2 52.4 L 556.2 52.4 Z M 556.2 247.2 "></path></clipPath><g clip-path="url(#clip-660)"><image xlink:href="../../C4B6CFB2-55FB-4B9B-A903-E4AD535EFC6B/assets/F4C582101AD4626043BEA7343FE168B0.jpeg" width="81.00" height="195.00" transform="matrix(1.01, 0.00, -0.00, -1.00, 556.2, 247.2)"></image></g></g><g><clipPath id="clip-661"><path d="M 556.2 714.7 L 638.2 714.7 L 638.2 520.0 L 556.2 520.0 Z M 556.2 714.7 "></path></clipPath><g clip-path="url(#clip-661)"><image xlink:href="../../C4B6CFB2-55FB-4B9B-A903-E4AD535EFC6B/assets/CF2C25CA97E888ACE4EDDFE275A14B98.jpeg" width="81.00" height="195.00" transform="matrix(1.01, 0.00, -0.00, -1.00, 556.2, 714.7)"></image></g></g><g><clipPath id="clip-662"><path d="M 556.2 948.7 L 638.2 948.7 L 638.2 753.8 L 556.2 753.8 Z M 556.2 948.7 "></path></clipPath><g clip-path="url(#clip-662)"><image xlink:href="../../C4B6CFB2-55FB-4B9B-A903-E4AD535EFC6B/assets/1C32FA8EC0D666BA1C8BF113039011AC.png" width="81.00" height="195.00" transform="matrix(1.01, 0.00, -0.00, -1.00, 556.2, 948.7)"></image></g></g><g><clipPath id="clip-663"><path d="M 816.0 948.5 L 897.9 948.5 L 897.9 802.7 L 816.0 802.7 Z M 816.0 948.5 "></path></clipPath><g clip-path="url(#clip-663)"><image xlink:href="../../C4B6CFB2-55FB-4B9B-A903-E4AD535EFC6B/assets/1EEEDED43E3B09F822A461F87080757B.jpeg" width="81.00" height="146.00" transform="matrix(1.01, 0.00, -0.00, -1.00, 816.0, 948.5)"></image></g></g><g><clipPath id="clip-664"><path d="M 296.5 948.5 L 378.4 948.5 L 378.4 802.7 L 296.5 802.7 Z M 296.5 948.5 "></path></clipPath><g clip-path="url(#clip-664)"><image xlink:href="../../C4B6CFB2-55FB-4B9B-A903-E4AD535EFC6B/assets/F2683F63DE2D6CBC643BC6DD28893EB3.jpeg" width="81.00" height="146.00" transform="matrix(1.01, 0.00, -0.00, -1.00, 296.5, 948.5)"></image></g></g><g><clipPath id="clip-665"><path d="M 296.5 715.0 L 378.4 715.0 L 378.4 569.2 L 296.5 569.2 Z M 296.5 715.0 "></path></clipPath><g clip-path="url(#clip-665)"><image xlink:href="../../C4B6CFB2-55FB-4B9B-A903-E4AD535EFC6B/assets/2FA04DDA67814B0E40A6D2BEE40230C8.jpeg" width="81.00" height="146.00" transform="matrix(1.01, 0.00, -0.00, -1.00, 296.5, 715.0)"></image></g></g><g><clipPath id="clip-666"><path d="M 296.5 480.9 L 378.4 480.9 L 378.4 335.2 L 296.5 335.2 Z M 296.5 480.9 "></path></clipPath><g clip-path="url(#clip-666)"><image xlink:href="../../C4B6CFB2-55FB-4B9B-A903-E4AD535EFC6B/assets/9ACB5C4ACB6502E9CB5731E6703A4246.jpeg" width="81.00" height="146.00" transform="matrix(1.01, 0.00, -0.00, -1.00, 296.5, 480.9)"></image></g></g><g><clipPath id="clip-667"><path d="M 166.8 480.9 L 248.8 480.9 L 248.8 335.2 L 166.8 335.2 Z M 166.8 480.9 "></path></clipPath><g clip-path="url(#clip-667)"><image xlink:href="../../C4B6CFB2-55FB-4B9B-A903-E4AD535EFC6B/assets/A72AB21B73BA7A44BEB6712DDC5505CE.jpeg" width="81.00" height="146.00" transform="matrix(1.01, 0.00, -0.00, -1.00, 166.8, 480.9)"></image></g></g><g><clipPath id="clip-668"><path d="M 166.8 948.5 L 248.8 948.5 L 248.8 753.8 L 166.8 753.8 Z M 166.8 948.5 "></path></clipPath><g clip-path="url(#clip-668)"><image xlink:href="../../C4B6CFB2-55FB-4B9B-A903-E4AD535EFC6B/assets/42D09D6584C03290E4DE4B0FCE6CB456.jpeg" width="81.00" height="195.00" transform="matrix(1.01, 0.00, -0.00, -1.00, 166.8, 948.5)"></image></g></g><g><clipPath id="clip-669"><path d="M 166.8 714.7 L 248.8 714.7 L 248.8 520.0 L 166.8 520.0 Z M 166.8 714.7 "></path></clipPath><g clip-path="url(#clip-669)"><image xlink:href="../../C4B6CFB2-55FB-4B9B-A903-E4AD535EFC6B/assets/79695D214C8B0E1903FEB96C987FDA7A.jpeg" width="81.00" height="195.00" transform="matrix(1.01, 0.00, -0.00, -1.00, 166.8, 714.7)"></image></g></g><g><clipPath id="clip-670"><path d="M 36.0 948.5 L 118.0 948.5 L 118.0 802.7 L 36.0 802.7 Z M 36.0 948.5 "></path></clipPath><g clip-path="url(#clip-670)"><image xlink:href="../../C4B6CFB2-55FB-4B9B-A903-E4AD535EFC6B/assets/32F9EBAB5E10917ECE70C28B1910B13D.png" width="81.00" height="146.00" transform="matrix(1.01, 0.00, -0.00, -1.00, 36.0, 948.5)"></image></g></g><g><clipPath id="clip-671"><path d="M 426.3 948.5 L 508.3 948.5 L 508.3 735.2 L 426.3 735.2 Z M 426.3 948.5 "></path></clipPath><g clip-path="url(#clip-671)"><image xlink:href="../../C4B6CFB2-55FB-4B9B-A903-E4AD535EFC6B/assets/0F14682E17F0C95E482F06E300CC24F6.jpeg" width="81.00" height="214.00" transform="matrix(1.01, 0.00, -0.00, -1.00, 426.3, 948.5)"></image></g></g><g><clipPath id="clip-672"><path d="M 426.1 714.7 L 508.3 714.7 L 508.3 501.4 L 426.1 501.4 Z M 426.1 714.7 "></path></clipPath><g clip-path="url(#clip-672)"><image xlink:href="../../C4B6CFB2-55FB-4B9B-A903-E4AD535EFC6B/assets/42382C29950935223908DA96E3CF5C9C.png" width="82.00" height="214.00" transform="matrix(1.00, 0.00, -0.00, -1.00, 426.1, 714.7)"></image></g></g><path d="M 0.0 0.0 L 204.0 0.0 L 204.0 15.0 L 0.0 15.0 Z M 0.0 0.0 " fill="none" stroke="#8DBD44" stroke-width="1.00" stroke-linejoin="round" transform="matrix(1.00, 0.00, 0.00, -1.00, 36.5, 1043.5)"></path><g><clipPath id="clip-673"><path d="M 34.0 1026.0 L 243.0 1026.0 L 243.0 1046.0 L 34.0 1046.0 Z M 34.0 1026.0 "></path></clipPath><g clip-path="url(#clip-673)"><text xml:space="preserve" font-family="Helvetica" font-size="12.0" fill="#3E3E3E" transform="matrix(1.00, 0.00, -0.00, -1.00, 46.0, 1032.0)">U</text><text xml:space="preserve" font-family="Helvetica" font-size="12.0" fill="#3E3E3E" transform="matrix(1.00, 0.00, -0.00, -1.00, 54.6, 1032.0)">S</text><text xml:space="preserve" font-family="Helvetica" font-size="12.0" fill="#3E3E3E" transform="matrix(1.00, 0.00, -0.00, -1.00, 62.6, 1032.0)">E</text><text xml:space="preserve" font-family="Helvetica" font-size="12.0" fill="#3E3E3E" transform="matrix(1.00, 0.00, -0.00, -1.00, 70.5, 1032.0)">R</text><text xml:space="preserve" font-family="Helvetica" font-size="12.0" fill="#3E3E3E" transform="matrix(1.00, 0.00, -0.00, -1.00, 79.1, 1032.0)"> </text><text xml:space="preserve" font-family="Helvetica" font-size="12.0" fill="#3E3E3E" transform="matrix(1.00, 0.00, -0.00, -1.00, 81.5, 1032.0)">F</text><text xml:space="preserve" font-family="Helvetica" font-size="12.0" fill="#3E3E3E" transform="matrix(1.00, 0.00, -0.00, -1.00, 88.9, 1032.0)">L</text><text xml:space="preserve" font-family="Helvetica" font-size="12.0" fill="#3E3E3E" transform="matrix(1.00, 0.00, -0.00, -1.00, 95.5, 1032.0)">O</text><text xml:space="preserve" font-family="Helvetica" font-size="12.0" fill="#3E3E3E" transform="matrix(1.00, 0.00, -0.00, -1.00, 104.9, 1032.0)">W</text></g></g></g></svg>